<svg width="160" height="42" viewBox="0 0 160 42" fill="none" xmlns="http://www.w3.org/2000/svg">
<path d="M21.2891 12.6875H4.88281C4.45137 12.6875 4.10156 12.3377 4.10156 11.9062V10.2461C4.10156 9.00762 5.10918 8 6.34766 8H19.8242C21.0627 8 22.0703 9.00762 22.0703 10.2461V11.9062C22.0703 12.3377 21.7205 12.6875 21.2891 12.6875Z" fill="#7857E9"/>
<path d="M6.83594 25.1875C4.68203 25.1875 2.92969 26.9398 2.92969 29.0938C2.92969 31.2477 4.68203 33 6.83594 33C8.98984 33 10.7422 31.2477 10.7422 29.0938C10.7422 26.9398 8.98984 25.1875 6.83594 25.1875ZM6.83691 29.875C6.40547 29.875 6.05542 29.5252 6.05542 29.0938C6.05542 28.6623 6.40493 28.3125 6.83643 28.3125H6.83691C7.26836 28.3125 7.61816 28.6623 7.61816 29.0938C7.61816 29.5252 7.26836 29.875 6.83691 29.875Z" fill="#7857E9"/>
<path d="M5.27344 14.4941V23.5352C5.27344 23.6925 5.42012 23.8088 5.57324 23.7725C5.97871 23.6762 6.40142 23.625 6.83594 23.625C9.85142 23.625 12.3047 26.0783 12.3047 29.0938C12.3047 29.6637 12.2168 30.2133 12.0542 30.7303C12.0049 30.8873 12.1223 31.0469 12.2869 31.0469H15.7686L16.4286 32.1473C16.7449 32.6732 17.3224 33 17.9355 33H20.1172C20.5487 33 20.8984 32.6502 20.8984 32.2188V14.4941C20.8984 14.3593 20.7891 14.25 20.6543 14.25H5.51758C5.38276 14.25 5.27344 14.3593 5.27344 14.4941ZM15.8339 22.4954C15.098 23.224 14.1229 23.625 13.0859 23.625C11.652 23.625 10.3784 22.8431 9.69902 21.6642C9.65366 21.5854 9.54326 21.5777 9.48872 21.6504L9.41401 21.75C9.26055 21.9546 9.02593 22.0625 8.78843 22.0625C8.6231 22.0625 8.45635 22.0103 8.3146 21.9019C7.9707 21.6391 7.91919 21.139 8.17886 20.7927L9.33594 19.25C9.5479 18.9674 9.92305 18.8622 10.2511 18.9934L12.1837 19.7665C12.5743 19.9227 12.7903 20.3573 12.6526 20.7548C12.5057 21.1792 12.0361 21.3903 11.6239 21.2254L11.6229 21.225C11.4935 21.1732 11.3878 21.3394 11.49 21.4343C11.9109 21.8254 12.4741 22.0625 13.0859 22.0625C13.7123 22.0625 14.3009 21.8188 14.7435 21.3763C15.0543 21.0654 15.5621 21.0713 15.8656 21.394C16.1565 21.7035 16.1358 22.1966 15.8339 22.4954ZM17.9945 18.6427L16.8359 20.1875C16.685 20.3888 16.4512 20.5 16.2107 20.5C16.1135 20.5 16.0152 20.4819 15.9208 20.4441L13.9882 19.671C13.5976 19.5148 13.3816 19.0803 13.5192 18.6828C13.6662 18.2583 14.1356 18.0471 14.5479 18.2121L14.5489 18.2125C14.6784 18.2643 14.784 18.0981 14.6819 18.0032C14.261 17.6121 13.6978 17.375 13.0859 17.375C12.4674 17.375 11.8857 17.6126 11.4451 18.0447C11.1629 18.3214 10.7202 18.3726 10.4057 18.133C10.0206 17.8395 9.99316 17.2868 10.3235 16.9564C11.0612 16.2188 12.0422 15.8125 13.0859 15.8125C14.5199 15.8125 15.7935 16.5944 16.4729 17.7733C16.5182 17.8521 16.6286 17.8598 16.6832 17.7871L16.7579 17.6875C17.0242 17.3324 17.5348 17.2685 17.8811 17.5545C18.2055 17.8224 18.247 18.3061 17.9945 18.6427Z" fill="#7857E9"/>
<path d="M50.553 12.488C50.8703 12.9413 51.046 13.372 51.08 13.78C51.1253 14.1767 51.0403 14.5167 50.825 14.8C50.621 15.072 50.298 15.276 49.856 15.412C49.414 15.548 48.8757 15.5707 48.241 15.48C48.0597 15.4573 47.918 15.4403 47.816 15.429C47.714 15.4177 47.612 15.4007 47.51 15.378C47.4193 15.3553 47.306 15.327 47.17 15.293C47.034 15.259 46.8357 15.208 46.575 15.14C46.2803 15.072 45.997 15.0153 45.725 14.97C45.4643 14.9133 45.2037 14.8567 44.943 14.8C44.7277 15.242 44.552 15.769 44.416 16.381C44.2913 16.993 44.178 17.6277 44.076 18.285C43.9853 18.931 43.9003 19.577 43.821 20.223C43.7417 20.869 43.6397 21.447 43.515 21.957C43.1863 23.4077 42.6593 24.6827 41.934 25.782C41.628 26.258 41.2597 26.7113 40.829 27.142C40.3983 27.584 39.894 27.9693 39.316 28.298C38.7493 28.6267 38.1033 28.876 37.378 29.046C36.6527 29.2273 35.8423 29.284 34.947 29.216C34.0743 29.1593 33.3207 28.9667 32.686 28.638C32.0627 28.3093 31.547 27.907 31.139 27.431C30.731 26.955 30.4307 26.4337 30.238 25.867C30.0567 25.3117 29.983 24.779 30.017 24.269C30.0623 23.5663 30.255 22.977 30.595 22.501C30.9463 22.0137 31.3713 21.6397 31.87 21.379C32.3687 21.1183 32.8957 20.9767 33.451 20.954C34.0177 20.92 34.5333 21.0107 34.998 21.226C35.474 21.43 35.8593 21.7587 36.154 22.212C36.46 22.6653 36.596 23.249 36.562 23.963C36.562 24.0877 36.5393 24.2123 36.494 24.337C36.4487 24.4503 36.3637 24.49 36.239 24.456C35.6837 24.32 35.219 24.3143 34.845 24.439C34.471 24.5637 34.182 24.762 33.978 25.034C33.774 25.306 33.6493 25.6177 33.604 25.969C33.57 26.3317 33.6097 26.6717 33.723 26.989C33.8477 27.3177 34.0403 27.5953 34.301 27.822C34.573 28.06 34.913 28.1903 35.321 28.213C35.933 28.2357 36.4317 28.1053 36.817 27.822C37.2137 27.5387 37.531 27.142 37.769 26.632C38.0183 26.122 38.211 25.527 38.347 24.847C38.483 24.1557 38.602 23.4303 38.704 22.671C38.8173 21.9003 38.9307 21.1183 39.044 20.325C39.1573 19.5203 39.316 18.7497 39.52 18.013C39.724 17.2763 39.9903 16.5907 40.319 15.956C40.6477 15.3213 41.0783 14.7887 41.611 14.358C40.489 14.2787 39.5483 14.307 38.789 14.443C38.0297 14.5677 37.412 14.7547 36.936 15.004C36.46 15.2533 36.103 15.548 35.865 15.888C35.6383 16.228 35.4853 16.568 35.406 16.908C35.3267 17.248 35.304 17.5767 35.338 17.894C35.372 18.2 35.423 18.455 35.491 18.659C35.525 18.761 35.5023 18.8573 35.423 18.948C35.355 19.0273 35.2757 19.084 35.185 19.118C34.6863 19.3107 34.2103 19.4013 33.757 19.39C33.3037 19.3673 32.8957 19.271 32.533 19.101C32.1703 18.931 31.8587 18.6987 31.598 18.404C31.3487 18.098 31.1617 17.758 31.037 17.384C30.9237 17.01 30.884 16.6077 30.918 16.177C30.9633 15.7463 31.105 15.31 31.343 14.868C31.7283 14.154 32.2723 13.61 32.975 13.236C33.6777 12.8507 34.4767 12.59 35.372 12.454C36.2673 12.318 37.2363 12.284 38.279 12.352C39.3217 12.4087 40.3757 12.5163 41.441 12.675C42.5177 12.8223 43.5773 12.998 44.62 13.202C45.674 13.406 46.6543 13.5873 47.561 13.746C47.7083 13.7687 47.8953 13.7913 48.122 13.814C48.36 13.8367 48.598 13.814 48.836 13.746C49.0853 13.678 49.329 13.542 49.567 13.338C49.8163 13.134 50.0317 12.8223 50.213 12.403C50.2357 12.369 50.2697 12.3463 50.315 12.335C50.383 12.3123 50.4623 12.3633 50.553 12.488ZM52.4273 18.438C52.2346 18.4267 52.0419 18.4777 51.8493 18.591C51.6566 18.693 51.4696 18.8403 51.2883 19.033C51.1183 19.2257 50.9483 19.458 50.7783 19.73C50.6196 19.9907 50.4666 20.2797 50.3193 20.597C50.1719 21.277 50.0133 22.008 49.8433 22.79C49.6846 23.5607 49.5316 24.303 49.3843 25.017H45.4062C45.5536 24.3257 45.7009 23.6117 45.8483 22.875C46.0069 22.1383 46.1486 21.4583 46.2733 20.835C46.4093 20.2003 46.5169 19.6677 46.5963 19.237C46.6869 18.8063 46.7436 18.5513 46.7663 18.472C46.8116 18.234 46.8343 18.0187 46.8343 17.826C46.8456 17.622 46.8003 17.486 46.6983 17.418C46.5849 17.35 46.5566 17.2537 46.6133 17.129C46.6699 16.993 46.7946 16.9023 46.9873 16.857C47.5653 16.7097 48.1263 16.6077 48.6703 16.551C49.2256 16.483 49.6903 16.4773 50.0643 16.534C50.3816 16.568 50.6196 16.687 50.7783 16.891C50.9483 17.095 51.0049 17.3387 50.9483 17.622C50.9369 17.656 50.9256 17.7013 50.9143 17.758C50.9029 17.8147 50.8859 17.8883 50.8633 17.979C51.2599 17.537 51.7076 17.1857 52.2063 16.925C52.7163 16.653 53.2886 16.517 53.9233 16.517C54.1159 16.517 54.3369 16.5453 54.5863 16.602C54.8356 16.6473 55.0906 16.7267 55.3513 16.84C55.7366 17.01 55.9973 17.265 56.1333 17.605C56.2693 17.945 56.2976 18.285 56.2183 18.625C56.1389 18.965 55.9633 19.271 55.6913 19.543C55.4193 19.815 55.0679 19.968 54.6373 20.002C54.3653 20.0247 54.1273 20.0247 53.9233 20.002C53.7306 19.968 53.5719 19.9283 53.4473 19.883C53.2999 19.8377 53.1753 19.781 53.0733 19.713C53.1753 19.475 53.2093 19.2767 53.1753 19.118C53.1526 18.9593 53.0959 18.8347 53.0053 18.744C52.9259 18.642 52.8296 18.5683 52.7163 18.523C52.6029 18.4777 52.5066 18.4493 52.4273 18.438ZM70.2439 21.039C70.4139 21.039 70.5442 21.107 70.6349 21.243C70.7256 21.379 70.7312 21.5263 70.6519 21.685C70.4366 22.1383 70.1872 22.569 69.9039 22.977C69.6319 23.3737 69.3202 23.725 68.9689 24.031C68.6289 24.3257 68.2436 24.5637 67.8129 24.745C67.3936 24.915 66.9289 25 66.4189 25C66.2036 25 65.9486 24.966 65.6539 24.898C65.3706 24.83 65.0816 24.7223 64.7869 24.575C64.5036 24.4277 64.2316 24.2407 63.9709 24.014C63.7216 23.776 63.5232 23.4927 63.3759 23.164C63.2512 23.3453 63.0869 23.538 62.8829 23.742C62.6902 23.9347 62.4636 24.1217 62.2029 24.303C61.9536 24.473 61.6816 24.6203 61.3869 24.745C61.0922 24.8697 60.7862 24.949 60.4689 24.983C59.6869 25.0623 59.0352 24.9943 58.5139 24.779C58.0039 24.5637 57.6016 24.2577 57.3069 23.861C57.0236 23.453 56.8422 22.9827 56.7629 22.45C56.6949 21.906 56.7119 21.3563 56.8139 20.801C56.9272 20.2343 57.1142 19.679 57.3749 19.135C57.6469 18.591 57.9869 18.115 58.3949 17.707C58.8029 17.299 59.2676 16.9817 59.7889 16.755C60.3102 16.5283 60.8712 16.449 61.4719 16.517C61.7892 16.551 62.0726 16.619 62.3219 16.721C62.5826 16.823 62.8092 16.9477 63.0019 17.095C63.2059 17.231 63.3759 17.3783 63.5119 17.537C63.6479 17.6957 63.7669 17.843 63.8689 17.979C63.8916 17.843 63.8916 17.724 63.8689 17.622C63.8462 17.52 63.8009 17.4463 63.7329 17.401C63.6309 17.333 63.6082 17.2367 63.6649 17.112C63.7216 16.976 63.8406 16.8853 64.0219 16.84C64.5999 16.6927 65.1609 16.5907 65.7049 16.534C66.2602 16.4773 66.7249 16.4717 67.0989 16.517C67.4162 16.551 67.6542 16.67 67.8129 16.874C67.9829 17.078 68.0396 17.3217 67.9829 17.605C67.8922 18.013 67.8016 18.4267 67.7109 18.846C67.6202 19.2653 67.5352 19.6563 67.4559 20.019C67.3879 20.3817 67.3199 20.7103 67.2519 21.005C67.1952 21.2883 67.1556 21.5037 67.1329 21.651C67.0762 21.923 67.0706 22.1497 67.1159 22.331C67.1612 22.501 67.2292 22.6427 67.3199 22.756C67.4219 22.858 67.5239 22.9373 67.6259 22.994C67.7392 23.0393 67.8412 23.062 67.9319 23.062C68.2832 23.0847 68.6176 22.9317 68.9349 22.603C69.2636 22.263 69.5696 21.821 69.8529 21.277C69.9549 21.1183 70.0852 21.039 70.2439 21.039ZM63.5969 19.441C63.5742 19.305 63.4949 19.1973 63.3589 19.118C63.2229 19.0273 63.0812 18.9707 62.9339 18.948C62.6392 18.9027 62.3616 18.982 62.1009 19.186C61.8402 19.3787 61.6079 19.628 61.4039 19.934C61.2112 20.24 61.0469 20.58 60.9109 20.954C60.7862 21.3167 60.7069 21.6453 60.6729 21.94C60.6276 22.348 60.6842 22.6597 60.8429 22.875C61.0129 23.079 61.2282 23.1753 61.4889 23.164C61.7496 23.1527 62.0329 23.0337 62.3389 22.807C62.6449 22.569 62.9169 22.212 63.1549 21.736C63.1549 21.668 63.1606 21.6 63.1719 21.532C63.1832 21.4527 63.2002 21.3733 63.2229 21.294C63.2342 21.2033 63.2569 21.0957 63.2909 20.971C63.3136 20.869 63.3362 20.75 63.3589 20.614C63.3929 20.4667 63.4269 20.308 63.4609 20.138L63.5969 19.441ZM77.5247 21.532C77.7514 22.0307 77.8024 22.5067 77.6777 22.96C77.553 23.402 77.2754 23.793 76.8447 24.133C76.4254 24.473 75.8587 24.7393 75.1447 24.932C74.442 25.1247 73.626 25.204 72.6967 25.17C71.688 25.136 70.9004 24.983 70.3337 24.711C69.767 24.4277 69.3704 24.099 69.1437 23.725C68.9057 23.351 68.815 22.9657 68.8717 22.569C68.9284 22.161 69.0757 21.8097 69.3137 21.515C69.5517 21.2203 69.8577 21.022 70.2317 20.92C70.617 20.8067 71.0137 20.8577 71.4217 21.073C71.5124 21.1183 71.5747 21.1863 71.6087 21.277C71.6427 21.3563 71.6427 21.4413 71.6087 21.532C71.4047 22.0533 71.3424 22.4897 71.4217 22.841C71.5124 23.1923 71.6767 23.4643 71.9147 23.657C72.1527 23.8497 72.4304 23.9687 72.7477 24.014C73.065 24.0593 73.3484 24.0423 73.5977 23.963C73.8584 23.8723 74.0454 23.725 74.1587 23.521C74.2834 23.3057 74.2664 23.045 74.1077 22.739C74.017 22.5577 73.8527 22.382 73.6147 22.212C73.388 22.042 73.1274 21.8607 72.8327 21.668C72.5494 21.4753 72.2547 21.2657 71.9487 21.039C71.654 20.8123 71.3934 20.563 71.1667 20.291C70.9514 20.019 70.7927 19.7187 70.6907 19.39C70.6 19.05 70.6114 18.6703 70.7247 18.251C70.804 17.9903 70.9457 17.7353 71.1497 17.486C71.3537 17.2367 71.6144 17.0213 71.9317 16.84C72.2604 16.6587 72.6457 16.5227 73.0877 16.432C73.5297 16.3413 74.034 16.313 74.6007 16.347C74.8954 16.3697 75.2184 16.4207 75.5697 16.5C75.921 16.5793 76.244 16.6983 76.5387 16.857C76.8334 17.0043 77.0714 17.1913 77.2527 17.418C77.4454 17.6333 77.5304 17.894 77.5077 18.2C77.485 18.4833 77.4 18.7043 77.2527 18.863C77.1054 19.0217 76.9297 19.1293 76.7257 19.186C76.5217 19.2427 76.3064 19.2597 76.0797 19.237C75.8644 19.2143 75.6774 19.169 75.5187 19.101C75.36 19.033 75.2524 18.948 75.1957 18.846C75.1504 18.744 75.19 18.642 75.3147 18.54C75.4734 18.4153 75.564 18.2793 75.5867 18.132C75.6094 17.9847 75.581 17.8487 75.5017 17.724C75.4224 17.588 75.309 17.4803 75.1617 17.401C75.0144 17.3103 74.8557 17.2593 74.6857 17.248C74.4137 17.2367 74.2154 17.282 74.0907 17.384C73.9774 17.4747 73.9094 17.6163 73.8867 17.809C73.864 18.0357 73.9944 18.2623 74.2777 18.489C74.5724 18.7157 74.918 18.9763 75.3147 19.271C75.7227 19.5543 76.1307 19.8773 76.5387 20.24C76.958 20.6027 77.2867 21.0333 77.5247 21.532ZM92.7637 21.039C92.9224 21.039 93.0471 21.107 93.1377 21.243C93.2284 21.379 93.2397 21.5263 93.1717 21.685C92.9564 22.1383 92.7071 22.569 92.4237 22.977C92.1517 23.3737 91.8401 23.725 91.4887 24.031C91.1374 24.337 90.7464 24.5807 90.3157 24.762C89.8964 24.932 89.4317 25.017 88.9217 25.017C88.6271 25.017 88.2644 24.9547 87.8337 24.83C87.4144 24.694 87.0234 24.4787 86.6607 24.184C86.2981 23.8893 86.0147 23.5097 85.8107 23.045C85.6067 22.569 85.5784 21.991 85.7257 21.311C85.7711 21.0617 85.8164 20.835 85.8617 20.631C85.8957 20.4497 85.9241 20.2853 85.9467 20.138C85.9807 19.9793 86.0034 19.883 86.0147 19.849C86.0601 19.577 86.0601 19.356 86.0147 19.186C85.9694 19.0047 85.9014 18.863 85.8107 18.761C85.7201 18.6477 85.6181 18.5683 85.5047 18.523C85.3914 18.4663 85.2951 18.438 85.2157 18.438C84.8191 18.4153 84.4394 18.608 84.0767 19.016C83.7254 19.424 83.4024 19.9453 83.1077 20.58C82.9151 21.43 82.7394 22.246 82.5807 23.028C82.4221 23.81 82.2804 24.473 82.1557 25.017H78.1777C78.5631 23.2037 78.9031 21.5717 79.1977 20.121C79.3224 19.509 79.4471 18.9083 79.5717 18.319C79.6964 17.7183 79.8097 17.1857 79.9117 16.721C80.0137 16.245 80.0931 15.8597 80.1497 15.565C80.2177 15.2703 80.2574 15.106 80.2687 15.072C80.3141 14.834 80.3424 14.6187 80.3537 14.426C80.3764 14.222 80.3367 14.086 80.2347 14.018C80.1214 13.95 80.0931 13.8537 80.1497 13.729C80.2064 13.593 80.3311 13.5023 80.5237 13.457C81.1017 13.3097 81.6627 13.2077 82.2067 13.151C82.7621 13.0943 83.2267 13.0887 83.6007 13.134C83.9067 13.168 84.1447 13.287 84.3147 13.491C84.4847 13.695 84.5414 13.9387 84.4847 14.222C84.4734 14.2787 84.4451 14.4147 84.3997 14.63C84.3544 14.8453 84.2921 15.123 84.2127 15.463C84.1447 15.7917 84.0597 16.1713 83.9577 16.602C83.8671 17.0213 83.7707 17.4747 83.6687 17.962C84.0654 17.52 84.5131 17.1687 85.0117 16.908C85.5104 16.636 86.0827 16.5 86.7287 16.5C87.0234 16.5 87.3804 16.568 87.7997 16.704C88.2304 16.8287 88.6271 17.0383 88.9897 17.333C89.3524 17.6277 89.6357 18.013 89.8397 18.489C90.0437 18.9537 90.0721 19.526 89.9247 20.206L89.7887 20.886C89.7547 21.0673 89.7207 21.2373 89.6867 21.396C89.6527 21.5433 89.6357 21.634 89.6357 21.668C89.5904 21.9287 89.5904 22.1497 89.6357 22.331C89.6811 22.501 89.7491 22.6427 89.8397 22.756C89.9304 22.8693 90.0267 22.9487 90.1287 22.994C90.2421 23.0393 90.3441 23.0677 90.4347 23.079C90.7861 23.1017 91.1261 22.943 91.4547 22.603C91.7834 22.2517 92.0894 21.8097 92.3727 21.277C92.4521 21.1183 92.5824 21.039 92.7637 21.039ZM113.296 21.039C113.092 21.5717 112.843 22.0817 112.548 22.569C112.265 23.045 111.936 23.4643 111.562 23.827C111.188 24.1897 110.769 24.4843 110.304 24.711C109.84 24.9263 109.324 25.034 108.757 25.034C108.463 25.034 108.1 24.9717 107.669 24.847C107.25 24.711 106.859 24.4957 106.496 24.201C106.134 23.9063 105.85 23.5267 105.646 23.062C105.442 22.586 105.414 22.008 105.561 21.328C105.607 21.0787 105.652 20.852 105.697 20.648C105.731 20.478 105.76 20.3137 105.782 20.155C105.816 19.9963 105.839 19.9 105.85 19.866C105.896 19.594 105.896 19.373 105.85 19.203C105.805 19.0217 105.737 18.88 105.646 18.778C105.556 18.6647 105.454 18.5853 105.34 18.54C105.227 18.4833 105.131 18.455 105.051 18.455C104.791 18.4323 104.536 18.5173 104.286 18.71C104.037 18.8913 103.799 19.1463 103.572 19.475C103.572 19.5997 103.567 19.7243 103.555 19.849C103.544 19.9623 103.521 20.087 103.487 20.223C103.34 20.937 103.204 21.6057 103.079 22.229C103.023 22.501 102.966 22.773 102.909 23.045C102.853 23.317 102.796 23.5833 102.739 23.844C102.694 24.0933 102.649 24.32 102.603 24.524C102.569 24.728 102.541 24.898 102.518 25.034H98.5234C98.5574 24.8527 98.6027 24.609 98.6594 24.303C98.7274 23.997 98.8011 23.6627 98.8804 23.3C98.9597 22.9373 99.0334 22.569 99.1014 22.195C99.1807 21.821 99.2544 21.4753 99.3224 21.158C99.3904 20.8293 99.4471 20.5517 99.4924 20.325C99.5377 20.087 99.5661 19.934 99.5774 19.866C99.6227 19.594 99.6227 19.373 99.5774 19.203C99.5434 19.0217 99.4811 18.88 99.3904 18.778C99.2997 18.6647 99.1977 18.5853 99.0844 18.54C98.9711 18.4833 98.8747 18.455 98.7954 18.455C98.3987 18.4323 98.0191 18.625 97.6564 19.033C97.3051 19.441 96.9821 19.9567 96.6874 20.58C96.5401 21.2713 96.3814 22.008 96.2114 22.79C96.0527 23.5607 95.8997 24.303 95.7524 25.017H91.7744C91.9217 24.3257 92.0691 23.6117 92.2164 22.875C92.3751 22.1383 92.5167 21.4583 92.6414 20.835C92.7774 20.2003 92.8851 19.6677 92.9644 19.237C93.0551 18.8063 93.1117 18.5513 93.1344 18.472C93.1797 18.234 93.2024 18.0187 93.2024 17.826C93.2137 17.622 93.1684 17.486 93.0664 17.418C92.9531 17.35 92.9247 17.2537 92.9814 17.129C93.0381 16.993 93.1627 16.9023 93.3554 16.857C93.9334 16.7097 94.4944 16.6077 95.0384 16.551C95.5937 16.4943 96.0584 16.4887 96.4324 16.534C96.7497 16.568 96.9877 16.687 97.1464 16.891C97.3164 17.095 97.3731 17.3387 97.3164 17.622C97.3051 17.656 97.2937 17.7013 97.2824 17.758C97.2711 17.8147 97.2541 17.8883 97.2314 17.979C97.6281 17.537 98.0757 17.1857 98.5744 16.925C99.0731 16.653 99.6454 16.517 100.291 16.517C100.507 16.517 100.75 16.551 101.022 16.619C101.306 16.6757 101.589 16.7777 101.872 16.925C102.156 17.061 102.422 17.2367 102.671 17.452C102.921 17.6673 103.125 17.928 103.283 18.234C103.691 17.724 104.162 17.3103 104.694 16.993C105.238 16.6757 105.862 16.517 106.564 16.517C106.859 16.517 107.216 16.585 107.635 16.721C108.066 16.8457 108.463 17.0553 108.825 17.35C109.188 17.6447 109.471 18.03 109.675 18.506C109.879 18.9707 109.908 19.543 109.76 20.223L109.624 20.903C109.59 21.0843 109.556 21.2543 109.522 21.413C109.488 21.5603 109.471 21.651 109.471 21.685C109.426 21.9457 109.426 22.1667 109.471 22.348C109.517 22.5293 109.585 22.6767 109.675 22.79C109.766 22.892 109.862 22.9713 109.964 23.028C110.078 23.0733 110.18 23.096 110.27 23.096C110.656 23.1187 111.018 22.9373 111.358 22.552C111.71 22.1553 112.033 21.651 112.327 21.039H113.296ZM125.378 21.039C125.548 21.039 125.678 21.107 125.769 21.243C125.859 21.379 125.865 21.5263 125.786 21.685C125.57 22.1383 125.321 22.569 125.038 22.977C124.766 23.3737 124.454 23.725 124.103 24.031C123.763 24.3257 123.377 24.5637 122.947 24.745C122.527 24.915 122.063 25 121.553 25C121.337 25 121.082 24.966 120.788 24.898C120.504 24.83 120.215 24.7223 119.921 24.575C119.637 24.4277 119.365 24.2407 119.105 24.014C118.855 23.776 118.657 23.4927 118.51 23.164C118.385 23.3453 118.221 23.538 118.017 23.742C117.824 23.9347 117.597 24.1217 117.337 24.303C117.087 24.473 116.815 24.6203 116.521 24.745C116.226 24.8697 115.92 24.949 115.603 24.983C114.821 25.0623 114.169 24.9943 113.648 24.779C113.138 24.5637 112.735 24.2577 112.441 23.861C112.157 23.453 111.976 22.9827 111.897 22.45C111.829 21.906 111.846 21.3563 111.948 20.801C112.061 20.2343 112.248 19.679 112.509 19.135C112.781 18.591 113.121 18.115 113.529 17.707C113.937 17.299 114.401 16.9817 114.923 16.755C115.444 16.5283 116.005 16.449 116.606 16.517C116.923 16.551 117.206 16.619 117.456 16.721C117.716 16.823 117.943 16.9477 118.136 17.095C118.34 17.231 118.51 17.3783 118.646 17.537C118.782 17.6957 118.901 17.843 119.003 17.979C119.025 17.843 119.025 17.724 119.003 17.622C118.98 17.52 118.935 17.4463 118.867 17.401C118.765 17.333 118.742 17.2367 118.799 17.112C118.855 16.976 118.974 16.8853 119.156 16.84C119.734 16.6927 120.295 16.5907 120.839 16.534C121.394 16.4773 121.859 16.4717 122.233 16.517C122.55 16.551 122.788 16.67 122.947 16.874C123.117 17.078 123.173 17.3217 123.117 17.605C123.026 18.013 122.935 18.4267 122.845 18.846C122.754 19.2653 122.669 19.6563 122.59 20.019C122.522 20.3817 122.454 20.7103 122.386 21.005C122.329 21.2883 122.289 21.5037 122.267 21.651C122.21 21.923 122.204 22.1497 122.25 22.331C122.295 22.501 122.363 22.6427 122.454 22.756C122.556 22.858 122.658 22.9373 122.76 22.994C122.873 23.0393 122.975 23.062 123.066 23.062C123.417 23.0847 123.751 22.9317 124.069 22.603C124.397 22.263 124.703 21.821 124.987 21.277C125.089 21.1183 125.219 21.039 125.378 21.039ZM118.731 19.441C118.708 19.305 118.629 19.1973 118.493 19.118C118.357 19.0273 118.215 18.9707 118.068 18.948C117.773 18.9027 117.495 18.982 117.235 19.186C116.974 19.3787 116.742 19.628 116.538 19.934C116.345 20.24 116.181 20.58 116.045 20.954C115.92 21.3167 115.841 21.6453 115.807 21.94C115.761 22.348 115.818 22.6597 115.977 22.875C116.147 23.079 116.362 23.1753 116.623 23.164C116.883 23.1527 117.167 23.0337 117.473 22.807C117.779 22.569 118.051 22.212 118.289 21.736C118.289 21.668 118.294 21.6 118.306 21.532C118.317 21.4527 118.334 21.3733 118.357 21.294C118.368 21.2033 118.391 21.0957 118.425 20.971C118.447 20.869 118.47 20.75 118.493 20.614C118.527 20.4667 118.561 20.308 118.595 20.138L118.731 19.441ZM132.658 21.532C132.885 22.0307 132.936 22.5067 132.811 22.96C132.687 23.402 132.409 23.793 131.978 24.133C131.559 24.473 130.992 24.7393 130.278 24.932C129.576 25.1247 128.76 25.204 127.83 25.17C126.822 25.136 126.034 24.983 125.467 24.711C124.901 24.4277 124.504 24.099 124.277 23.725C124.039 23.351 123.949 22.9657 124.005 22.569C124.062 22.161 124.209 21.8097 124.447 21.515C124.685 21.2203 124.991 21.022 125.365 20.92C125.751 20.8067 126.147 20.8577 126.555 21.073C126.646 21.1183 126.708 21.1863 126.742 21.277C126.776 21.3563 126.776 21.4413 126.742 21.532C126.538 22.0533 126.476 22.4897 126.555 22.841C126.646 23.1923 126.81 23.4643 127.048 23.657C127.286 23.8497 127.564 23.9687 127.881 24.014C128.199 24.0593 128.482 24.0423 128.731 23.963C128.992 23.8723 129.179 23.725 129.292 23.521C129.417 23.3057 129.4 23.045 129.241 22.739C129.151 22.5577 128.986 22.382 128.748 22.212C128.522 22.042 128.261 21.8607 127.966 21.668C127.683 21.4753 127.388 21.2657 127.082 21.039C126.788 20.8123 126.527 20.563 126.3 20.291C126.085 20.019 125.926 19.7187 125.824 19.39C125.734 19.05 125.745 18.6703 125.858 18.251C125.938 17.9903 126.079 17.7353 126.283 17.486C126.487 17.2367 126.748 17.0213 127.065 16.84C127.394 16.6587 127.779 16.5227 128.221 16.432C128.663 16.3413 129.168 16.313 129.734 16.347C130.029 16.3697 130.352 16.4207 130.703 16.5C131.055 16.5793 131.378 16.6983 131.672 16.857C131.967 17.0043 132.205 17.1913 132.386 17.418C132.579 17.6333 132.664 17.894 132.641 18.2C132.619 18.4833 132.534 18.7043 132.386 18.863C132.239 19.0217 132.063 19.1293 131.859 19.186C131.655 19.2427 131.44 19.2597 131.213 19.237C130.998 19.2143 130.811 19.169 130.652 19.101C130.494 19.033 130.386 18.948 130.329 18.846C130.284 18.744 130.324 18.642 130.448 18.54C130.607 18.4153 130.698 18.2793 130.72 18.132C130.743 17.9847 130.715 17.8487 130.635 17.724C130.556 17.588 130.443 17.4803 130.295 17.401C130.148 17.3103 129.989 17.2593 129.819 17.248C129.547 17.2367 129.349 17.282 129.224 17.384C129.111 17.4747 129.043 17.6163 129.02 17.809C128.998 18.0357 129.128 18.2623 129.411 18.489C129.706 18.7157 130.052 18.9763 130.448 19.271C130.856 19.5543 131.264 19.8773 131.672 20.24C132.092 20.6027 132.42 21.0333 132.658 21.532ZM140.775 21.039C140.933 21.039 141.058 21.107 141.149 21.243C141.239 21.379 141.251 21.5263 141.183 21.685C140.967 22.1497 140.718 22.586 140.435 22.994C140.163 23.3907 139.851 23.742 139.5 24.048C139.148 24.354 138.757 24.5977 138.327 24.779C137.907 24.949 137.443 25.034 136.933 25.034C136.627 25.034 136.258 24.9717 135.828 24.847C135.408 24.711 135.017 24.4957 134.655 24.201C134.292 23.9063 134.009 23.5267 133.805 23.062C133.601 22.586 133.572 22.008 133.72 21.328C133.799 20.8973 133.884 20.4723 133.975 20.053C134.054 19.6903 134.133 19.305 134.213 18.897C134.292 18.489 134.366 18.1207 134.434 17.792H133.312C133.312 17.4293 133.436 17.1233 133.686 16.874C133.935 16.6247 134.241 16.5 134.604 16.5H134.655C134.972 16.5 135.295 16.4433 135.624 16.33C135.964 16.2053 136.281 16.0467 136.576 15.854C136.882 15.6613 137.154 15.446 137.392 15.208C137.63 14.9587 137.805 14.7037 137.919 14.443C138.032 14.205 138.219 14.086 138.48 14.086C138.672 14.086 138.831 14.1597 138.956 14.307C139.08 14.4543 139.12 14.6243 139.075 14.817C139.018 15.0663 138.956 15.3383 138.888 15.633C138.831 15.9277 138.774 16.2167 138.718 16.5H139.772C139.772 16.8627 139.647 17.1687 139.398 17.418C139.148 17.6673 138.848 17.792 138.497 17.792H138.446C138.355 18.1887 138.27 18.591 138.191 18.999C138.111 19.3957 138.032 19.7697 137.953 20.121C137.885 20.4723 137.822 20.784 137.766 21.056C137.709 21.328 137.664 21.5377 137.63 21.685C137.584 21.9457 137.584 22.1667 137.63 22.348C137.675 22.5293 137.743 22.6767 137.834 22.79C137.924 22.892 138.026 22.9713 138.14 23.028C138.253 23.0733 138.349 23.096 138.429 23.096C138.791 23.1187 139.137 22.96 139.466 22.62C139.794 22.2687 140.1 21.821 140.384 21.277C140.463 21.1183 140.593 21.039 140.775 21.039ZM149.408 21.056C149.51 21.056 149.595 21.0843 149.663 21.141C149.742 21.1863 149.799 21.2487 149.833 21.328C149.867 21.4073 149.878 21.4923 149.867 21.583C149.856 21.6737 149.816 21.7587 149.748 21.838C149.408 22.2347 149.023 22.6257 148.592 23.011C148.161 23.385 147.685 23.7193 147.164 24.014C146.654 24.3087 146.099 24.5523 145.498 24.745C144.897 24.9263 144.251 25.017 143.56 25.017C142.789 25.017 142.149 24.9037 141.639 24.677C141.129 24.439 140.727 24.133 140.432 23.759C140.137 23.3737 139.945 22.9373 139.854 22.45C139.775 21.9513 139.78 21.447 139.871 20.937C139.962 20.4157 140.126 19.9057 140.364 19.407C140.613 18.897 140.925 18.438 141.299 18.03C141.684 17.622 142.121 17.2877 142.608 17.027C143.095 16.755 143.628 16.5907 144.206 16.534C144.954 16.466 145.583 16.5113 146.093 16.67C146.603 16.8173 147.011 17.027 147.317 17.299C147.634 17.5597 147.861 17.8543 147.997 18.183C148.133 18.5003 148.195 18.8007 148.184 19.084C148.161 19.4693 148.054 19.8263 147.861 20.155C147.68 20.4723 147.447 20.75 147.164 20.988C146.892 21.226 146.586 21.4243 146.246 21.583C145.917 21.7303 145.6 21.8323 145.294 21.889C144.999 21.9343 144.733 21.9287 144.495 21.872C144.268 21.8153 144.11 21.6963 144.019 21.515C143.996 21.6057 143.979 21.6907 143.968 21.77C143.957 21.838 143.945 21.906 143.934 21.974C143.877 22.4727 143.985 22.858 144.257 23.13C144.529 23.402 144.903 23.5267 145.379 23.504C145.866 23.47 146.427 23.2717 147.062 22.909C147.708 22.5463 148.371 21.9797 149.051 21.209C149.13 21.107 149.249 21.056 149.408 21.056ZM146.246 18.455C146.019 18.421 145.798 18.4833 145.583 18.642C145.368 18.7893 145.169 18.9933 144.988 19.254C144.807 19.5033 144.642 19.7923 144.495 20.121C144.348 20.4383 144.229 20.75 144.138 21.056C144.818 21.09 145.356 20.9823 145.753 20.733C146.15 20.4723 146.422 20.1833 146.569 19.866C146.716 19.5373 146.756 19.2313 146.688 18.948C146.631 18.6533 146.484 18.489 146.246 18.455ZM155.457 18.438C155.264 18.4267 155.071 18.4777 154.879 18.591C154.686 18.693 154.499 18.8403 154.318 19.033C154.148 19.2257 153.978 19.458 153.808 19.73C153.649 19.9907 153.496 20.2797 153.349 20.597C153.201 21.277 153.043 22.008 152.873 22.79C152.714 23.5607 152.561 24.303 152.414 25.017H148.436C148.583 24.3257 148.73 23.6117 148.878 22.875C149.036 22.1383 149.178 21.4583 149.303 20.835C149.439 20.2003 149.546 19.6677 149.626 19.237C149.716 18.8063 149.773 18.5513 149.796 18.472C149.841 18.234 149.864 18.0187 149.864 17.826C149.875 17.622 149.83 17.486 149.728 17.418C149.614 17.35 149.586 17.2537 149.643 17.129C149.699 16.993 149.824 16.9023 150.017 16.857C150.595 16.7097 151.156 16.6077 151.7 16.551C152.255 16.483 152.72 16.4773 153.094 16.534C153.411 16.568 153.649 16.687 153.808 16.891C153.978 17.095 154.034 17.3387 153.978 17.622C153.966 17.656 153.955 17.7013 153.944 17.758C153.932 17.8147 153.915 17.8883 153.893 17.979C154.289 17.537 154.737 17.1857 155.236 16.925C155.746 16.653 156.318 16.517 156.953 16.517C157.145 16.517 157.366 16.5453 157.616 16.602C157.865 16.6473 158.12 16.7267 158.381 16.84C158.766 17.01 159.027 17.265 159.163 17.605C159.299 17.945 159.327 18.285 159.248 18.625C159.168 18.965 158.993 19.271 158.721 19.543C158.449 19.815 158.097 19.968 157.667 20.002C157.395 20.0247 157.157 20.0247 156.953 20.002C156.76 19.968 156.601 19.9283 156.477 19.883C156.329 19.8377 156.205 19.781 156.103 19.713C156.205 19.475 156.239 19.2767 156.205 19.118C156.182 18.9593 156.125 18.8347 156.035 18.744C155.955 18.642 155.859 18.5683 155.746 18.523C155.632 18.4777 155.536 18.4493 155.457 18.438Z" fill="#535353"/>
</svg>
